<svg width="50" height="50" viewBox="0 0 50 50" fill="none" xmlns="http://www.w3.org/2000/svg">
<g clip-path="url(#clip0_1_152)">
<path d="M50 22.2187H35.3792L48.0417 14.9083L45.2604 10.0917L32.5979 17.4021L39.9062 4.74167L35.0896 1.95833L27.7812 14.6187V0H22.2187V14.6208L14.9083 1.95833L10.0917 4.73958L17.4021 17.4L4.73958 10.0917L1.95833 14.9083L14.6208 22.2187H0V27.7812H14.6187L1.95833 35.0917L4.73958 39.9104L17.4 32.6021L10.0896 45.2625L14.9062 48.0437L22.2167 35.3812V50H27.7792V35.3812L35.0875 48.0417L39.9042 45.2604L32.5937 32.5979L45.2562 39.9083L48.0375 35.0896L35.3771 27.7812H49.9958V22.2187H50ZM25 32.5646C22.986 32.5646 21.0545 31.7645 19.6304 30.3404C18.2063 28.9163 17.4062 26.9848 17.4062 24.9708C17.4062 22.9568 18.2063 21.0253 19.6304 19.6012C21.0545 18.1771 22.986 17.3771 25 17.3771C27.014 17.3771 28.9455 18.1771 30.3696 19.6012C31.7937 21.0253 32.5937 22.9568 32.5937 24.9708C32.5937 26.9848 31.7937 28.9163 30.3696 30.3404C28.9455 31.7645 27.014 32.5646 25 32.5646Z" fill="#47FDB4"/>
</g>
<defs>
<clipPath id="clip0_1_152">
<rect width="50" height="50" fill="white"/>
</clipPath>
</defs>
</svg>
